<?xml version="1.0" encoding="utf-8"?>
<!-- Generator: Adobe Illustrator 23.0.1, SVG Export Plug-In . SVG Version: 6.00 Build 0)  -->
<svg version="1.1" id="Layer_1" xmlns="http://www.w3.org/2000/svg" xmlns:xlink="http://www.w3.org/1999/xlink" x="0px" y="0px"
	 viewBox="0 0 1366 768" style="enable-background:new 0 0 1366 768;" xml:space="preserve">
<style type="text/css">
	.st0{fill:#EBE1DF;}
	.st1{fill:#BFD9FF;}
	.st2{fill:#FF9100;}
	.st3{fill:#150400;}
	.st4{fill:#150800;}
	.st5{opacity:0.84;fill:#004A40;enable-background:new    ;}
	.st6{fill:#AFFFF2;}
	.st7{opacity:0.82;fill:#E56F00;enable-background:new    ;}
	.st8{opacity:0.96;fill:#1B1500;enable-background:new    ;}
	.st9{fill:#00355F;}
	.st10{fill:none;stroke:#000000;stroke-width:2;stroke-miterlimit:10;}
	.st11{fill:#FFFFFF;stroke:#F5F5F5;stroke-width:2;stroke-miterlimit:10;}
	.st12{fill:none;stroke:#008A88;stroke-width:5;stroke-miterlimit:10;}
	.st13{fill:none;stroke:#008A88;stroke-width:4;stroke-miterlimit:10;}
	.st14{fill:#5F3325;}
	.st15{fill:#33C900;}
	.st16{fill:#338700;}
	.st17{fill:none;stroke:#146500;stroke-width:2;stroke-miterlimit:10;}
	.st18{fill:#CC9EF4;}
	.st19{fill:#A7E5FF;}
	.st20{fill:#A7E5FF;stroke:#000000;stroke-width:3;stroke-miterlimit:10;}
	.st21{fill:none;stroke:#000000;stroke-width:3;stroke-miterlimit:10;}
	.st22{fill:none;stroke:#AA2B00;stroke-width:4;stroke-miterlimit:10;}
</style>
<polygon class="st0" points="0,0 0,768 1366,768 1366,4.8 "/>
<path class="st1" d="M201.6,768c0,0-202.2-222-91.9-341.5c0,0,9.2-290.8,191-296S507,0,507,0h311.5c0,0-19.8,245.5,204.1,252.8
	s347.4,17.9,174.8,516.1L201.6,768z"/>
<path class="st2" d="M458.2,252.8c0,0,7.7,3.9,31.6-16.7c0,0,10.6,4.8,55.9-54.4c0,0-22.6-36,23.7-49.8c0,0,21.7,7.3,102.6-24.5
	c0,0,51.1-16.1,35.5,68.1c0,0-5.7,18.2-29.8,34.2c0,0-1.7,24.5,2.7,42.2c0,0,1,9.9-19.1,6.8c0,0,3.7,22.1-12.6,19.1l-15.7-11.9
	l14.6,13.6c0,0,1.6,9.1-2.7,9.2s-17.8,11.1-18.7,14c-0.9,2.9-12.7,24.6-32.7,3.8l-20.2-18.1c0,0-5.5-1.1-7.1,6l3.3,4.1l-8.1-3
	c0,0-43-37.7-54.4-33.5C507.3,262.1,493,254.5,458.2,252.8z"/>
<image style="display:none;overflow:visible;enable-background:new    ;" width="800" height="533" xlink:href="B9CBC776.jpeg"  transform="matrix(1.3813 0 0 1.4409 100 0)">
</image>
<path class="st3" d="M451.6,249.1c0,0,11.5,7.7,23-104.9c11.5-112.6,88.1-140.9,112.6-134c0,0,37.5-4.8,87.3,33.7
	c53.4,41.3,34.9,49.9-2.3,63.6c0,0-74.3,30.6-102.6,24.5c0,0-13.8,1.5-24.5,16.1s0.8,33.7,0.8,33.7s-41.4,55.2-55.9,54.4
	C489.9,236.1,457.7,259.8,451.6,249.1z"/>
<path class="st3" d="M708.2,180.9c0,0-12.3,124.1-35.2,150.1c0,0,18.2-28.4,11.4-60.1c0,0-46.7,69.4-31.9,76.3c0,0-16.1-10.2-5.9-30
	c0,0-12.3,5.5-7.8,17.4s-2.4,80,64,116.8c0,0-37.5-10.5-36.4-17.7c0,0,0.3,12.9,4.4,14.6c4.1,1.7,8.2,10.5,25.2,20.8
	c0,0-22.1-3.4-26.2-13.3c-4.1-9.9,32.3,34-3.4,126c0,0,4.8-50.4,1-57.5c0,0-4.4,50-10.5,48.7c0,0,18-64-4.3-107.2
	s-41-59.6-44.7-75.2s-7.8-14.3-11.9-33.7c-4.1-19.4-8.2,14.6-6.5-25.9s-8.2-15.3-22.8-36.4c0,0,1.4-5.1,5.8-6.1s28.9,32.7,42.9,25.9
	s5.8-15,30-25.5c0,0,4.4,0.3,2.7-9.2l-14.6-13.6l15.7,11.9c0,0,9.5,2.4,11.6-6.1s1-12.9,1-12.9s19.7,2.7,19.1-6.8
	c-0.7-9.5-5.1-14.3-2.7-42.2C677.9,209.7,686.4,212.8,708.2,180.9z"/>
<path class="st4" d="M715.8,91.3c10.8,40-23.9,201.6-27.5,204.7c-3.6,3.1,1.8-93.1-10.4-86.3c-12.3,6.8,30.6-19.7,30.3-37.8
	c0,0,7.5-55.5-14.6-61.3c-22.1-5.8-21.4-3.2-21.4-3.2l25.8-43.2C697.9,64.3,714.5,86.3,715.8,91.3z"/>
<path class="st5" d="M562.8,296.1c0,0-43.6-37.7-55.5-34c0.1,0.1-26.4-14.3-87.8-7.8l-32.7,12.6c0,0-37.8-5.8-41.9,0
	c-4.1,5.8,0,24.5,0,24.5s-9.5,3.1-10.2,8.9s-2.4,21.5,2.7,31.7c0,0-27.2,72.9,1.4,103.5c0,0-4.8,113.4,7.8,119.5
	c0,0-7.8,147.1,7.8,155.6c0,0-28.3,52.1-14.3,56.2c14,4.1,159,1.4,159,1.4s51.4-17.7,66-32.7c0,0,51.1-17,48.3-19.7
	s-0.7-11.9,6.5-13.3c7.2-1.4,7.5,9.5,19.7,9.2c12.3-0.3,12.7-1.4,12.7-1.4s-11.4-38.8-6.6-39.5s10.5-5.1,10.5-5.1s11.2-1.7,10.5,0
	s-0.7,1.7-0.7,1.7s10.2,4.4,11.6,0.3s9.2-63.7-15.7-67.7l-9.7,1.4c0,0-6.6-45.6-2.9-49c3.7-3.4,15.3-24.5,11.9-43.9
	c-3.4-19.4-2.1-33.2-16.7-56.6c-14.5-23.4-35.4-52.3-37.1-61.2c0,0-15-28.9-15.3-35.4c0,0-27.7-13.9-3.4-12.2c0,0,1.7-31.3-4-33
	S581.5,301.5,562.8,296.1z"/>
<path class="st6" d="M540,302.3c7.2-8.5,5.5-13.7,16.7-6.2c11.2,7.5,11.6,56.2,16.3,59.6s45.3,58.3,45.3,70.5
	c0,2.4,5.5,13.3-8.8,8.9c0,0-6.1-22.1-10.5-21.5c0,0-7.2-16.7-25.2-29.6c0,0-16.7-18-19.4-41.2c-2.7-23.1-1.7-28.6-5.5-34
	C545.1,303.3,540,302.3,540,302.3z"/>
<path class="st7" d="M666.9,601.4c0,0,73.1-22.4,90.5-19.6c0,0,25.5,14.5,27.7,16.2c2.2,1.7,22.8-0.5,27.2,3.5
	c4.4,4,42,35.3,45.3,31.9c0,0,4.3,15.2-12.6,9.5c0,0-0.8,7-7.8,2.9c0,0,0.8,8.5-16.5,4.8c0,0-28.6-8.2-41.4-17.2
	c0,0-23.7,3.7-30.1-1c0,0-4.1,9.9,40.5,9.7c0,0,4.3,14.6-8,14.1s-37.1,1.7-44.8-2.4c0,0-0.5,14.6-58.4,10.4
	C678.5,664.2,686.7,613.4,666.9,601.4z"/>
<path d="M645.9,670.6l293.6-30.1l9.2,7.7v7.4l-12.3,15.1l-186.1,18.9l-13.8-6.1l-45.2,6.1c0,0-6,16.5-18,1.9l-17.7,0.5
	C655.6,691.9,647.3,686.5,645.9,670.6z"/>
<path class="st8" d="M1014.9,334.3c8.3,1,12.8,0.3,6.3,25.2s-9.2,43.6-9.2,43.6l-48.2,209v13.6l-15.2,20.4l-9.2-5.6v-6.6l9.2-5.5
	l3.2-8.8l1.4-11.9l2.4-8.8l-2.4-4.1l50-223.7l2.7-1L1014.9,334.3z"/>
<path d="M451.6,249.1c0,0.1,4.7,14.1,38.3-13l-27.7,14.4l-5.9,0.5C456.3,251,452,250.3,451.6,249.1z"/>
<g>
	<path class="st9" d="M948.7,658.9l-12.3,11.7l-186.1,18.9l-16.1-2.3l-39.6,9.3c-17.7,0.3-35.4,1.8-52.9,2.7
		c-2.7,0.2-5.3,0.4-7.9,0.8c-2.2-0.2-4.4-0.2-6.6,0.4c-1.7-0.1-3.4,0.2-5,0.8c-1.3-0.4-2.7-0.5-4.5-0.1c-3.6,0.9-6.1,3.6-7.1,6.9
		c-2.3,1.7-4.4,3.9-6.5,5.8c-0.2,0.2-0.4,0.3-0.5,0.5c0.1,0,0.2,0.1,0.2,0.1c2.5,1,4.3,3.3,3.5,6.2c-0.7,2.4-3.7,4.5-6.2,3.5
		c-1.8-0.8-3.6-1.6-5.3-2.5l-0.6,0.6c-4.4,0.8-8.8,1.8-13.2,2.9c-7.8,2-24.2,5.6-24.6,15.7c-0.1,0.2-0.2,0.3-0.2,0.5
		c-16,6.9-34.4,15.3-54.2,25.3l508.6,1.3C1056.7,662.6,948.7,658.9,948.7,658.9z"/>
</g>
<path d="M659.2,172.5c0,0,28.6-4.9,25.5,22.2l7.4-7.4C692.1,187.3,692.4,167.1,659.2,172.5z"/>
<path class="st10" d="M669.4,206c0,0,5.1-10.2-24.2-15"/>
<path class="st11" d="M664,199.3c-1.3-0.6-2.6-1.3-3.9-1.8c-0.9-0.4-1.8-0.7-2.8-1c-1.5,1.3-2.5,3.2-2.4,5.4
	c0.2,3.1,2.7,5.8,5.8,6.1c3,0.3,5.7-1.4,6.8-4c-1.2-1.6-1.9-3.1-3.2-4.5C664.3,199.4,664.2,199.3,664,199.3z"/>
<path d="M668,205.7c-0.5-0.8-1.3-1.3-2.3-1.3c-1.5,0-2.8,1.2-2.8,2.8c0,0.6,0.2,1.2,0.6,1.7c0.3-0.1,0.5-0.1,0.8-0.2
	c0.3-0.1,0.6-0.1,0.9-0.2c0.1,0,0.1-0.1,0.2-0.1c0,0,0,0,0.1,0s0,0,0.1,0c0.2-0.1,0.3-0.2,0.5-0.3c0.3-0.3,0.6-0.5,0.9-0.7
	c0.2-0.3,0.4-0.6,0.6-0.9C667.7,206.1,667.8,205.9,668,205.7z"/>
<path class="st12" d="M400.3,381.4c0,0-53.6,4.9-37.5,68.4c0,0-34.9,230.3-8.3,260.7c26.6,30.4,172.9,4.9,220.4-13
	s44.7-28.1,71-26.8l32.7-6.5c8.7-62.1-16.3-64.3-16.3-64.3c1.2,5.8-77-2.5-110.9,13.8c-15,7.2-99.4,4-99.4,4
	c36.4-169.1,58.6-173.2,67.1-190.1c8.5-16.9-25.4-71.2-25.4-71.2"/>
<path class="st13" d="M594.1,674.2c0,0,6.7-62.5-31.9-64.6"/>
<path class="st13" d="M452,617.7c0,0-26.5-10.8-63.2,56.5"/>
<path class="st13" d="M540,617c0,0,33.3,0.5,0,71"/>
<path class="st12" d="M543.5,303.7l-9.2,16.6c0,0-67.8-31.9-113.9-8.3s-52.3,57.3-52.3,57.3s-20.5,18.4-23.6,29.9
	c-3.2,11.5-5.6,36.2-5.6,36.2s-28.9-19.9-1.4-103.5c0,0-12.6-37.3,7.5-40.5c0,0-5.9-22.3,0-24.5c5.9-2.2,0.9-4.4,41.9,0l32.7-12.6
	c0,0,63.5-7.4,83.4,6c0,0,61.4,23.7,82,49.5c20.6,25.9-32.9-16.4-32.9-16.4L543.5,303.7z"/>
<polygon class="st14" points="1155.5,689 1187.2,769 1254.6,769 1269.9,689 "/>
<path class="st14" d="M1155.5,666.8h114.4c0,0,19.4,11.9,0,19s-114.4,0-114.4,0S1131,678.5,1155.5,666.8z"/>
<path class="st15" d="M1276.6,582.3l-55.4,58.7C1221.2,641,1261.5,676.3,1276.6,582.3z"/>
<path class="st16" d="M1221.2,640.1c0,0-40.4-24,55.4-58.7"/>
<path class="st15" d="M1148.9,591.6l55.4,58.7C1204.3,650.3,1164,685.5,1148.9,591.6z"/>
<path class="st16" d="M1204.3,650.3c0,0,40.4-24-55.4-58.7"/>
<path class="st15" d="M124.3,525.6"/>
<path class="st15" d="M1217.1,592.5"/>
<path class="st15" d="M124.3,525.6"/>
<path class="st16" d="M135,525.6"/>
<path class="st16" d="M1222.3,591.6"/>
<path class="st16" d="M1204.3,523.5c0,0-60.3,86.1,0,74.3V523.5z"/>
<path class="st16" d="M1204.3,597.8c0-74.3,0-74.3,0-74.3V597.8z"/>
<path class="st15" d="M1204.3,597.8c55.4,6.2,0-74.3,0-74.3"/>
<path class="st15" d="M1211.6,666.8"/>
<path class="st17" d="M1204.3,666.8c0,0,17.7-23.2,7.3-36c-10.3-12.8,9.8-22.4-13.9-31.9"/>
<path class="st18" d="M1024.3,80.3h145.5c0,0,24.8,0,21.1,19.4l0.4,125.6h-178.7V100.8C1012.5,100.8,1012.6,80.3,1024.3,80.3z"/>
<rect x="1012.7" y="106.2" class="st19" width="178.3" height="138.3"/>
<rect x="1024.3" y="130.5" class="st20" width="156.5" height="101"/>
<rect x="1046.2" y="152.9" class="st20" width="117.4" height="63.3"/>
<rect x="1067.7" y="171.6" class="st20" width="77" height="26.9"/>
<line class="st21" x1="1046.2" y1="130.5" x2="1046.2" y2="231.5"/>
<line class="st21" x1="1066.7" y1="130.5" x2="1067.7" y2="231.5"/>
<line class="st21" x1="1024.3" y1="171.6" x2="1180.8" y2="171.6"/>
<line class="st21" x1="1024.3" y1="152.9" x2="1182.3" y2="152.7"/>
<line class="st21" x1="1024.3" y1="198.5" x2="1182.1" y2="198.5"/>
<line class="st21" x1="1024.3" y1="216.2" x2="1180.8" y2="216.2"/>
<line class="st21" x1="1090.5" y1="130.5" x2="1091.7" y2="231.5"/>
<line class="st21" x1="1117.5" y1="130.5" x2="1118.5" y2="231.5"/>
<line class="st21" x1="1162.4" y1="130.5" x2="1163.7" y2="231.5"/>
<line class="st21" x1="1143" y1="131.4" x2="1144.6" y2="231.5"/>
<circle class="st22" cx="1104.1" cy="184.5" r="10.9"/>
</svg>
